REM DIRINDEX 1\2\6,1\2\7,1\2\8,1\3\9,1\3\10,1\3\11,1\4\12,1\4\13,1\4\14,1\5\15,1\5\16,1\5\17,1\5\18
REM DIRNAME folder01,folder02,folder03,folder04,folder05,folder06,folder07,folder08,folder09,folder10,folder11,folder12,folder13,folder14,folder15,folder16,folder17,folder18
TITLE ""
FILE "2Q_j_1471-1484.mp3" MP3
  TRACK 01 AUDIO
    TITLE "6:cjc019_0876"
    INDEX 01 00:00:00
  TRACK 02 AUDIO
    TITLE "0:"
    INDEX 01 00:01:26
  TRACK 03 AUDIO
    TITLE "7:cjc019_0877"
    INDEX 01 00:02:08
  TRACK 04 AUDIO
    TITLE "0:"
    INDEX 01 00:03:12
  TRACK 05 AUDIO
    TITLE "8:cjc019_0878"
    INDEX 01 00:03:74
  TRACK 06 AUDIO
    TITLE "0:"
    INDEX 01 00:07:33
  TRACK 07 AUDIO
    TITLE "6:cjc019_0879"
    INDEX 01 00:08:09
  TRACK 08 AUDIO
    TITLE "0:"
    INDEX 01 00:09:61
  TRACK 09 AUDIO
    TITLE "7:cjc019_0880"
    INDEX 01 00:10:45
  TRACK 10 AUDIO
    TITLE "0:"
    INDEX 01 00:12:42
  TRACK 11 AUDIO
    TITLE "8:cjc019_0881"
    INDEX 01 00:13:16
  TRACK 12 AUDIO
    TITLE "0:"
    INDEX 01 00:18:56
  TRACK 13 AUDIO
    TITLE "6:cjc019_0882"
    INDEX 01 00:19:40
  TRACK 14 AUDIO
    TITLE "0:"
    INDEX 01 00:20:65
  TRACK 15 AUDIO
    TITLE "7:cjc019_0883"
    INDEX 01 00:21:47
  TRACK 16 AUDIO
    TITLE "0:"
    INDEX 01 00:22:60
  TRACK 17 AUDIO
    TITLE "8:cjc019_0884"
    INDEX 01 00:23:38
  TRACK 18 AUDIO
    TITLE "0:"
    INDEX 01 00:26:69
  TRACK 19 AUDIO
    TITLE "6:cjc019_0885"
    INDEX 01 00:27:43
  TRACK 20 AUDIO
    TITLE "0:"
    INDEX 01 00:28:70
  TRACK 21 AUDIO
    TITLE "7:cjc019_0886"
    INDEX 01 00:29:42
  TRACK 22 AUDIO
    TITLE "0:"
    INDEX 01 00:30:61
  TRACK 23 AUDIO
    TITLE "8:cjc019_0887"
    INDEX 01 00:31:37
  TRACK 24 AUDIO
    TITLE "0:"
    INDEX 01 00:34:08
  TRACK 25 AUDIO
    TITLE "6:cjc019_0888"
    INDEX 01 00:34:61
  TRACK 26 AUDIO
    TITLE "0:"
    INDEX 01 00:36:03
  TRACK 27 AUDIO
    TITLE "7:cjc019_0889"
    INDEX 01 00:36:58
  TRACK 28 AUDIO
    TITLE "0:"
    INDEX 01 00:40:15
  TRACK 29 AUDIO
    TITLE "8:cjc019_0890"
    INDEX 01 00:40:66
  TRACK 30 AUDIO
    TITLE "0:"
    INDEX 01 00:43:62
  TRACK 31 AUDIO
    TITLE "6:cjc019_0891"
    INDEX 01 00:44:40
  TRACK 32 AUDIO
    TITLE "0:"
    INDEX 01 00:46:41
  TRACK 33 AUDIO
    TITLE "7:cjc019_0892"
    INDEX 01 00:47:23
  TRACK 34 AUDIO
    TITLE "0:"
    INDEX 01 00:49:23
  TRACK 35 AUDIO
    TITLE "8:cjc019_0893"
    INDEX 01 00:50:01
  TRACK 36 AUDIO
    TITLE "0:"
    INDEX 01 00:55:73
  TRACK 37 AUDIO
    TITLE "6:cjc019_0894"
    INDEX 01 00:56:51
  TRACK 38 AUDIO
    TITLE "0:"
    INDEX 01 00:58:58
  TRACK 39 AUDIO
    TITLE "7:cjc019_0895"
    INDEX 01 00:59:39
  TRACK 40 AUDIO
    TITLE "0:"
    INDEX 01 01:02:14
  TRACK 41 AUDIO
    TITLE "8:cjc019_0896"
    INDEX 01 01:02:67
  TRACK 42 AUDIO
    TITLE "0:"
    INDEX 01 01:07:23
  TRACK 43 AUDIO
    TITLE "6:cjc019_0897"
    INDEX 01 01:08:05
  TRACK 44 AUDIO
    TITLE "0:"
    INDEX 01 01:09:26
  TRACK 45 AUDIO
    TITLE "7:cjc019_0898"
    INDEX 01 01:10:00
  TRACK 46 AUDIO
    TITLE "0:"
    INDEX 01 01:12:44
  TRACK 47 AUDIO
    TITLE "8:cjc019_0899"
    INDEX 01 01:13:26
  TRACK 48 AUDIO
    TITLE "0:"
    INDEX 01 01:19:09
  TRACK 49 AUDIO
    TITLE "6:cjc019_0900"
    INDEX 01 01:19:60
  TRACK 50 AUDIO
    TITLE "0:"
    INDEX 01 01:21:14
  TRACK 51 AUDIO
    TITLE "7:cjc019_0901"
    INDEX 01 01:21:69
  TRACK 52 AUDIO
    TITLE "0:"
    INDEX 01 01:25:57
  TRACK 53 AUDIO
    TITLE "8:cjc019_0902"
    INDEX 01 01:26:32
  TRACK 54 AUDIO
    TITLE "0:"
    INDEX 01 01:31:26
  TRACK 55 AUDIO
    TITLE "6:cjc019_0903"
    INDEX 01 01:32:06
  TRACK 56 AUDIO
    TITLE "0:"
    INDEX 01 01:33:58
  TRACK 57 AUDIO
    TITLE "7:cjc019_0904"
    INDEX 01 01:34:34
  TRACK 58 AUDIO
    TITLE "0:"
    INDEX 01 01:36:23
  TRACK 59 AUDIO
    TITLE "8:cjc019_0905"
    INDEX 01 01:37:01
  TRACK 60 AUDIO
    TITLE "0:"
    INDEX 01 01:40:44
  TRACK 61 AUDIO
    TITLE "6:cjc019_0906"
    INDEX 01 01:41:26
  TRACK 62 AUDIO
    TITLE "0:"
    INDEX 01 01:43:19
  TRACK 63 AUDIO
    TITLE "7:cjc019_0907"
    INDEX 01 01:44:01
  TRACK 64 AUDIO
    TITLE "0:"
    INDEX 01 01:48:12
  TRACK 65 AUDIO
    TITLE "8:cjc019_0908"
    INDEX 01 01:48:67
  TRACK 66 AUDIO
    TITLE "0:"
    INDEX 01 01:53:57
  TRACK 67 AUDIO
    TITLE "6:cjc019_0909"
    INDEX 01 01:54:35
  TRACK 68 AUDIO
    TITLE "0:"
    INDEX 01 01:56:06
  TRACK 69 AUDIO
    TITLE "7:cjc019_0910"
    INDEX 01 01:56:61
  TRACK 70 AUDIO
    TITLE "0:"
    INDEX 01 02:01:11
  TRACK 71 AUDIO
    TITLE "8:cjc019_0911"
    INDEX 01 02:01:70
  TRACK 72 AUDIO
    TITLE "0:"
    INDEX 01 02:07:20
  TRACK 73 AUDIO
    TITLE "6:cjc019_0912"
    INDEX 01 02:08:07
  TRACK 74 AUDIO
    TITLE "0:"
    INDEX 01 02:09:62
  TRACK 75 AUDIO
    TITLE "7:cjc019_0913"
    INDEX 01 02:10:36
  TRACK 76 AUDIO
    TITLE "0:"
    INDEX 01 02:14:59
  TRACK 77 AUDIO
    TITLE "8:cjc019_0914"
    INDEX 01 02:15:29
  TRACK 78 AUDIO
    TITLE "0:"
    INDEX 01 02:20:05
  TRACK 79 AUDIO
    TITLE "6:cjc019_0915"
    INDEX 01 02:20:58
  TRACK 80 AUDIO
    TITLE "0:"
    INDEX 01 02:22:25
  TRACK 81 AUDIO
    TITLE "7:cjc019_0916"
    INDEX 01 02:23:01
  TRACK 82 AUDIO
    TITLE "0:"
    INDEX 01 02:25:21
  TRACK 83 AUDIO
    TITLE "8:cjc019_0917"
    INDEX 01 02:25:65
  TRACK 84 AUDIO
    TITLE "0:"
    INDEX 01 02:30:48
